<svg width="189" height="47" viewBox="0 0 189 47" fill="none" xmlns="http://www.w3.org/2000/svg">
<path d="M23.3225 0C10.4291 0 0 10.4295 0 23.3233H23.3225V0Z" fill="#FFDD2A"/>
<path d="M0 23.3233C0 36.2171 10.4291 46.6466 23.3225 46.6466V23.3233H0Z" fill="#45EC9C"/>
<path d="M23.1905 0C36.0838 0 46.5129 10.4295 46.5129 23.3233H23.1905V0Z" fill="#FE5E7B"/>
<path d="M46.4688 23.3233C33.5755 23.3233 23.1464 33.7528 23.1464 46.6466H46.4688V23.3233Z" fill="#63B4FC"/>
<path d="M53.3776 28.34C53.3776 25.5676 54.3457 23.1913 56.3259 21.211C58.3062 19.2307 60.6384 18.2626 63.4107 18.2626C66.227 18.2626 68.6032 19.2307 70.5834 21.211C72.5637 23.1913 73.5758 25.5676 73.5758 28.384C73.5758 31.1564 72.5637 33.4887 70.5834 35.513C68.6032 37.4933 66.227 38.5054 63.4547 38.5054C60.6384 38.5054 58.2621 37.5373 56.2819 35.513C54.3457 33.5327 53.3776 31.1564 53.3776 28.34ZM58.9222 28.384C58.9222 29.6602 59.3623 30.7163 60.2424 31.5965C61.1224 32.4766 62.1786 32.9166 63.4547 32.9166C64.6868 32.9166 65.7429 32.4766 66.667 31.5965C67.5471 30.7163 68.0312 29.6602 68.0312 28.428C68.0312 27.1958 67.5911 26.1397 66.667 25.2596C65.7429 24.3794 64.6868 23.9394 63.4547 23.9394C62.2226 23.9394 61.1665 24.3794 60.2864 25.2596C59.4063 26.1397 58.9222 27.1518 58.9222 28.384Z" fill="#4A4A4A"/>
<path d="M86.0291 18.3065C88.8454 18.3065 91.2217 19.3187 93.1579 21.299C95.0941 23.2792 96.1062 25.6556 96.1062 28.472C96.1062 31.2444 95.0941 33.6207 93.1139 35.601C91.1337 37.5813 88.7574 38.5494 85.9851 38.5494C84.445 38.5494 82.9488 38.1974 81.4527 37.4933V46.9986H75.9081V27.8119C75.9081 27.0638 76.0841 26.1397 76.4801 25.0835C77.2282 23.0592 78.4603 21.387 80.1765 20.1988C81.8927 18.8786 83.8729 18.3065 86.0291 18.3065ZM81.4527 28.428C81.4527 29.7042 81.8927 30.7603 82.7728 31.5964C83.6529 32.4765 84.709 32.9166 85.9851 32.9166C87.2173 32.9166 88.2734 32.4765 89.1975 31.5964C90.0776 30.7163 90.5616 29.6602 90.5616 28.428C90.5616 27.1958 90.1216 26.1397 89.1975 25.2595C88.3174 24.3794 87.2173 23.9393 85.9851 23.9393C84.753 23.9393 83.6969 24.3794 82.7728 25.2595C81.8487 26.1397 81.4527 27.1958 81.4527 28.428Z" fill="#4A4A4A"/>
<path d="M98.3944 11.0016H103.939V18.0426H106.667V23.6314H103.939V31.9925C103.939 32.1686 104.027 32.3446 104.203 32.5646C104.379 32.7846 104.555 32.8727 104.731 32.8727H107.019V38.4614H104.379C104.027 38.4614 103.587 38.3734 103.103 38.2414C100.815 37.5813 99.3185 36.0411 98.6584 33.7528C98.5264 33.2247 98.4384 32.7406 98.4384 32.3006V11.0016H98.3944Z" fill="#4A4A4A"/>
<path d="M110.452 13.95C110.452 13.4659 110.672 13.0258 111.156 12.6738C111.508 12.4097 111.816 12.1457 112.124 11.9257C112.168 11.9257 112.168 11.9257 112.168 11.8817C112.168 11.8377 112.168 11.8377 112.124 11.7937C112.08 11.7497 112.08 11.7056 111.992 11.6176C111.86 11.6616 111.552 11.7497 111.024 12.0137C110.628 12.1897 110.32 12.2777 110.012 12.2777C109.175 12.2777 108.779 11.8377 108.779 11.0015C108.779 10.1654 109.219 9.76937 110.056 9.76937C110.408 9.76937 111.024 9.9894 111.86 10.3855L111.992 10.4295H112.036C112.124 10.3415 112.168 10.2974 112.168 10.2534V10.1214C112.168 10.0774 112.124 10.0334 112.08 9.9894C111.728 9.72536 111.376 9.41732 111.068 9.15329C110.672 8.75723 110.452 8.40518 110.452 7.96512C110.452 7.61307 110.584 7.30503 110.848 7.08499C111.112 6.86496 111.42 6.73294 111.772 6.73294C112.608 6.73294 113.092 7.61306 113.268 9.41732H113.62L113.664 9.28531C113.664 9.15329 113.708 8.75723 113.84 8.00912C113.972 7.26102 114.28 6.86496 114.852 6.68893H115.16C115.512 6.68893 115.82 6.82095 116.084 7.04099C116.348 7.26102 116.48 7.56906 116.48 7.92111C116.48 8.40518 115.908 9.10928 114.808 9.9454L114.764 9.9894V10.0334C114.808 10.0774 114.808 10.1654 114.896 10.2094L114.94 10.2534H114.984C116.04 9.81338 116.656 9.59335 116.92 9.59335C117.756 9.59335 118.196 9.9894 118.196 10.8255C118.196 11.7056 117.756 12.1017 116.92 12.1017C116.612 12.1017 115.996 11.8817 115.072 11.4856C115.028 11.4856 115.028 11.4856 114.94 11.4416L114.896 11.4856L114.676 11.8817L114.72 11.9257C115.82 12.7178 116.392 13.4219 116.392 13.95C116.392 14.302 116.26 14.6101 115.996 14.8741C115.732 15.1381 115.424 15.2701 115.072 15.2701C114.324 15.2701 113.884 14.7861 113.752 13.8179C113.664 13.0258 113.62 12.6298 113.62 12.5858L113.576 12.5418H113.268L113.224 12.5858C113.224 12.6298 113.18 13.0698 113.092 13.8179C112.96 14.7861 112.52 15.2701 111.772 15.2701C111.42 15.2701 111.112 15.1381 110.848 14.8741C110.584 14.6101 110.452 14.302 110.452 13.95Z" fill="#FE5E7B"/>
<path d="M116.304 18.1305H110.76V38.5054H116.304V18.1305Z" fill="#4A4A4A"/>
<path d="M118.636 28.604C118.636 25.8316 119.605 23.4553 121.585 21.475C123.565 19.4947 125.897 18.5266 128.669 18.5266C131.486 18.5266 133.862 19.4947 135.842 21.475C137.822 23.4553 138.835 25.8316 138.835 28.648C138.835 31.4204 137.822 33.7528 135.842 35.777C133.862 37.7573 131.486 38.7695 128.713 38.7695C125.897 38.7695 123.521 37.8013 121.541 35.777C119.605 33.7968 118.636 31.4204 118.636 28.604ZM124.181 28.648C124.181 29.9242 124.621 30.9804 125.501 31.8605C126.381 32.7406 127.437 33.1807 128.713 33.1807C129.946 33.1807 131.002 32.7406 131.926 31.8605C132.806 30.9804 133.29 29.9242 133.29 28.692C133.29 27.4599 132.85 26.4037 131.926 25.5236C131.002 24.6435 129.946 24.2034 128.713 24.2034C127.481 24.2034 126.425 24.6435 125.545 25.5236C124.665 26.4037 124.181 27.4159 124.181 28.648Z" fill="#4A4A4A"/>
<path d="M150.725 18C152.705 18 154.509 18.5281 156.138 19.6282C157.766 20.7284 158.954 22.1806 159.746 23.9848C160.274 25.217 160.538 26.2732 160.538 27.1973V38.2869H154.993V27.5493C154.993 27.2853 154.949 27.0653 154.861 26.8893C154.597 25.9651 154.113 25.173 153.365 24.6009C152.617 23.9848 151.737 23.6768 150.769 23.6768C149.801 23.6768 148.965 23.9848 148.217 24.5569C147.469 25.129 146.985 25.8771 146.721 26.8012C146.677 26.9773 146.633 27.0653 146.633 27.0653C146.633 27.0653 146.589 27.2853 146.545 27.7254V38.2869H141V27.4173C141 27.1533 141.044 26.7572 141.132 26.3172C141.528 23.9848 142.628 22.0046 144.476 20.4203C146.281 18.7921 148.393 18 150.725 18Z" fill="#4A4A4A"/>
<path d="M178.351 10.8695C180.595 10.8695 182.663 11.5736 184.556 12.9818C186.448 14.39 187.724 16.1943 188.384 18.3506C188.78 19.6268 189 20.5949 189 21.343V38.5495H183.455V27.5039H173.29V38.5495H167.746V21.299C167.746 20.5509 167.966 19.5388 168.406 18.2186C169.11 16.0623 170.386 14.302 172.278 12.9378C174.082 11.5736 176.107 10.8695 178.351 10.8695ZM178.307 16.4583C176.899 16.4583 175.711 17.0304 174.743 18.1306C173.73 19.2747 173.246 20.5069 173.246 21.9151H183.411C183.411 20.5069 182.927 19.2307 181.915 18.1306C180.903 17.0304 179.671 16.4583 178.307 16.4583Z" fill="#4A4A4A"/>
</svg>
